<svg width="600" height="600" viewBox="0 0 600 600" fill="none" xmlns="http://www.w3.org/2000/svg">
<rect width="600" height="600" rx="100" fill="black"/>
<path d="M486.432 135.001L486.211 464.615L486.21 466.114H424.11V212.271C374.987 239.007 332.951 290.078 301.19 329.611L300.021 331.066L298.852 329.611C267.092 290.08 224.949 239.007 175.821 212.271V466.114H113.722L113.721 464.615L113.5 135.001L113.499 133.334L115.157 133.508C132.306 135.31 149.409 138.351 164.333 143.506L165.501 143.912C190.068 152.587 217.28 169.733 241.584 188.795C265.556 207.596 286.811 228.351 300.022 244.875C313.231 228.398 334.459 207.666 358.402 188.866C383.064 169.502 410.726 152.092 435.596 143.507C450.52 138.351 467.625 135.31 484.774 133.508L486.433 133.334L486.432 135.001Z" fill="#5582FF" stroke="#5582FF" stroke-width="3"/>
</svg>
